:FULLY-SPECIFIED
:FORCE-ALL-JOINTS-BE-3DOF
:DEGREES
611
root 5.64087 16.6893 -3.77808 0.738147 51.928 -7.22188
lfemur -17.5282 25.0127 -22.4216
ltibia 39.705 -0 0
lfoot -33.5318 24.3393 -0.0606204
ltoes 19.283 -0 0
rfemur -51.8323 -17.517 25.934
rtibia 62.1436 -0 0
rfoot 9.31916 28.7269 -0.00403298
rtoes -10.6425 0 0
lowerback 3.20666 -3.24379 -4.78529
upperback 0.0452903 -4.47479 1.26555
thorax -1.28904 -2.2059 4.15615
lowerneck -8.49615 -9.28075 -0.555003
upperneck 14.8936 -13.1887 4.29571
head 6.27025 -6.08328 0.385828
lclavicle 0 0 0
lhumerus -22.1707 -41.7784 93.2747
lradius 57.6818 -0 0
lwrist 21.6441 0 0
lhand -12.2251 -0.469371 -0.00475846
lfingers 0 0 0
lthumb 13.8399 29.0488 -0.00488084
rclavicle 0 0 0
rhumerus 21.5161 3.96098 -71.7007
rradius 117.29 -0 0
rwrist -57.8052 0 0
rhand -28.5556 -24.7695 0.0179801
rfingers 0 0 0
rthumb -1.92245 -54.7381 0.0172728
612
root 5.64851 16.7078 -3.80161 1.37572 49.5056 -6.70347
lfemur -17.2775 25.204 -22.8553
ltibia 39.0578 -0 0
lfoot -34.1501 25.0386 -0.0568702
ltoes 21.7242 -0 0
rfemur -52.1772 -17.7589 25.5133
rtibia 64.3699 -0 0
rfoot 9.67809 28.6468 -0.00378355
rtoes -11.0416 0 0
lowerback 3.08112 -3.37493 -4.5367
upperback -0.111623 -4.63807 1.29764
thorax -1.37977 -2.28364 4.05282
lowerneck -8.74536 -8.96746 -0.308578
upperneck 15.038 -12.7393 3.84145
head 6.29838 -5.88043 0.23361
lclavicle 0 0 0
lhumerus -22.1791 -42.7434 94.0151
lradius 58.3589 -0 0
lwrist 21.331 0 0
lhand -12.0431 -0.65569 -0.00446417
lfingers 0 0 0
lthumb 14.0154 28.8506 -0.00457898
rclavicle 0 0 0
rhumerus 21.0182 3.35559 -71.4157
rradius 115.476 -0 0
rwrist -57.9959 0 0
rhand -28.8329 -25.2318 0.016868
rfingers 0 0 0
rthumb -2.19028 -55.198 0.0162045
613
root 5.65723 16.7244 -3.82276 1.9184 47.226 -6.27449
lfemur -17.0429 25.3853 -23.2628
ltibia 38.4496 -0 0
lfoot -34.731 25.6957 -0.0464689
ltoes 24.0183 -0 0
rfemur -52.5 -17.9884 25.1188
rtibia 66.462 -0 0
rfoot 10.0154 28.5715 -0.00309172
rtoes -11.4168 0 0
lowerback 2.9626 -3.49767 -4.3028
upperback -0.259202 -4.79144 1.32821
thorax -1.46492 -2.35685 3.95583
lowerneck -8.97813 -8.67209 -0.0784475
upperneck 15.1701 -12.3159 3.41633
head 6.32431 -5.68973 0.0907034
lclavicle 0 0 0
lhumerus -22.2029 -43.6502 94.7218
lradius 58.9952 -0 0
lwrist 21.0368 0 0
lhand -11.8719 -0.830782 -0.0036479
lfingers 0 0 0
lthumb 14.1803 28.6642 -0.00374172
rclavicle 0 0 0
rhumerus 20.5478 2.78895 -71.1433
rradius 113.772 -0 0
rwrist -58.1752 0 0
rhand -29.0935 -25.6663 0.0137835
rfingers 0 0 0
rthumb -2.44195 -55.6301 0.0132413
614
root 5.66593 16.7383 -3.84069 2.35671 45.222 -5.93749
lfemur -16.8379 25.5458 -23.6204
ltibia 37.9154 -0 0
lfoot -35.2411 26.2727 -0.031841
ltoes 26.033 -0 0
rfemur -52.7825 -18.1917 24.7731
rtibia 68.2994 -0 0
rfoot 10.3116 28.5054 -0.00211863
rtoes -11.7462 0 0
lowerback 2.85809 -3.60507 -4.09715
upperback -0.388901 -4.92605 1.35539
thorax -1.53959 -2.42126 3.87074
lowerneck -9.1814 -8.41193 0.122505
upperneck 15.2833 -11.9433 3.04438
head 6.34669 -5.5222 -0.034688
lclavicle 0 0 0
lhumerus -22.237 -44.4464 95.3518
lradius 59.554 -0 0
lwrist 20.7784 0 0
lhand -11.7217 -0.984547 -0.00249978
lfingers 0 0 0
lthumb 14.3252 28.5006 -0.00256407
rclavicle 0 0 0
rhumerus 20.1326 2.29318 -70.9004
rradius 112.275 -0 0
rwrist -58.3326 0 0
rhand -29.3223 -26.0478 0.00944516
rfingers 0 0 0
rthumb -2.66295 -56.0096 0.00907361
